<?xml version="1.0" encoding="utf-8" standalone="no"?>
<!DOCTYPE svg PUBLIC "-//W3C//DTD SVG 1.1//EN"
  "http://www.w3.org/Graphics/SVG/1.1/DTD/svg11.dtd">
<!-- Created with matplotlib (http://matplotlib.org/) -->
<svg height="426pt" version="1.1" viewBox="0 0 432 426" width="432pt" xmlns="http://www.w3.org/2000/svg" xmlns:xlink="http://www.w3.org/1999/xlink">
 <defs>
  <style type="text/css">
*{stroke-linecap:butt;stroke-linejoin:round;}
  </style>
 </defs>
 <g id="figure_1">
  <g id="patch_1">
   <path d="M 0 426.24 
L 432 426.24 
L 432 0 
L 0 0 
z
" style="fill:#ffffff;"/>
  </g>
  <g id="axes_1">
   <g id="patch_2">
    <path d="M 54 379.3536 
L 388.8 379.3536 
L 388.8 51.1488 
L 54 51.1488 
z
" style="fill:#ffffff;"/>
   </g>
   <g id="matplotlib.axis_1">
    <g id="xtick_1">
     <g id="line2d_1">
      <defs>
       <path d="M 0 0 
L 0 3.5 
" id="m39eff705dd" style="stroke:#000000;stroke-width:0.8;"/>
      </defs>
      <g>
       <use style="stroke:#000000;stroke-width:0.8;" x="69.218182" xlink:href="#m39eff705dd" y="379.3536"/>
      </g>
     </g>
     <g id="text_1">
      <!-- 0 -->
      <defs>
       <path d="M 31.78125 66.40625 
Q 24.171875 66.40625 20.328125 58.90625 
Q 16.5 51.421875 16.5 36.375 
Q 16.5 21.390625 20.328125 13.890625 
Q 24.171875 6.390625 31.78125 6.390625 
Q 39.453125 6.390625 43.28125 13.890625 
Q 47.125 21.390625 47.125 36.375 
Q 47.125 51.421875 43.28125 58.90625 
Q 39.453125 66.40625 31.78125 66.40625 
z
M 31.78125 74.21875 
Q 44.046875 74.21875 50.515625 64.515625 
Q 56.984375 54.828125 56.984375 36.375 
Q 56.984375 17.96875 50.515625 8.265625 
Q 44.046875 -1.421875 31.78125 -1.421875 
Q 19.53125 -1.421875 13.0625 8.265625 
Q 6.59375 17.96875 6.59375 36.375 
Q 6.59375 54.828125 13.0625 64.515625 
Q 19.53125 74.21875 31.78125 74.21875 
z
" id="DejaVuSans-30"/>
      </defs>
      <g transform="translate(66.036932 393.952038)scale(0.1 -0.1)">
       <use xlink:href="#DejaVuSans-30"/>
      </g>
     </g>
    </g>
    <g id="xtick_2">
     <g id="line2d_2">
      <g>
       <use style="stroke:#000000;stroke-width:0.8;" x="130.096997" xlink:href="#m39eff705dd" y="379.3536"/>
      </g>
     </g>
     <g id="text_2">
      <!-- 20 -->
      <defs>
       <path d="M 19.1875 8.296875 
L 53.609375 8.296875 
L 53.609375 0 
L 7.328125 0 
L 7.328125 8.296875 
Q 12.9375 14.109375 22.625 23.890625 
Q 32.328125 33.6875 34.8125 36.53125 
Q 39.546875 41.84375 41.421875 45.53125 
Q 43.3125 49.21875 43.3125 52.78125 
Q 43.3125 58.59375 39.234375 62.25 
Q 35.15625 65.921875 28.609375 65.921875 
Q 23.96875 65.921875 18.8125 64.3125 
Q 13.671875 62.703125 7.8125 59.421875 
L 7.8125 69.390625 
Q 13.765625 71.78125 18.9375 73 
Q 24.125 74.21875 28.421875 74.21875 
Q 39.75 74.21875 46.484375 68.546875 
Q 53.21875 62.890625 53.21875 53.421875 
Q 53.21875 48.921875 51.53125 44.890625 
Q 49.859375 40.875 45.40625 35.40625 
Q 44.1875 33.984375 37.640625 27.21875 
Q 31.109375 20.453125 19.1875 8.296875 
z
" id="DejaVuSans-32"/>
      </defs>
      <g transform="translate(123.734497 393.952038)scale(0.1 -0.1)">
       <use xlink:href="#DejaVuSans-32"/>
       <use x="63.623047" xlink:href="#DejaVuSans-30"/>
      </g>
     </g>
    </g>
    <g id="xtick_3">
     <g id="line2d_3">
      <g>
       <use style="stroke:#000000;stroke-width:0.8;" x="190.975812" xlink:href="#m39eff705dd" y="379.3536"/>
      </g>
     </g>
     <g id="text_3">
      <!-- 40 -->
      <defs>
       <path d="M 37.796875 64.3125 
L 12.890625 25.390625 
L 37.796875 25.390625 
z
M 35.203125 72.90625 
L 47.609375 72.90625 
L 47.609375 25.390625 
L 58.015625 25.390625 
L 58.015625 17.1875 
L 47.609375 17.1875 
L 47.609375 0 
L 37.796875 0 
L 37.796875 17.1875 
L 4.890625 17.1875 
L 4.890625 26.703125 
z
" id="DejaVuSans-34"/>
      </defs>
      <g transform="translate(184.613312 393.952038)scale(0.1 -0.1)">
       <use xlink:href="#DejaVuSans-34"/>
       <use x="63.623047" xlink:href="#DejaVuSans-30"/>
      </g>
     </g>
    </g>
    <g id="xtick_4">
     <g id="line2d_4">
      <g>
       <use style="stroke:#000000;stroke-width:0.8;" x="251.854627" xlink:href="#m39eff705dd" y="379.3536"/>
      </g>
     </g>
     <g id="text_4">
      <!-- 60 -->
      <defs>
       <path d="M 33.015625 40.375 
Q 26.375 40.375 22.484375 35.828125 
Q 18.609375 31.296875 18.609375 23.390625 
Q 18.609375 15.53125 22.484375 10.953125 
Q 26.375 6.390625 33.015625 6.390625 
Q 39.65625 6.390625 43.53125 10.953125 
Q 47.40625 15.53125 47.40625 23.390625 
Q 47.40625 31.296875 43.53125 35.828125 
Q 39.65625 40.375 33.015625 40.375 
z
M 52.59375 71.296875 
L 52.59375 62.3125 
Q 48.875 64.0625 45.09375 64.984375 
Q 41.3125 65.921875 37.59375 65.921875 
Q 27.828125 65.921875 22.671875 59.328125 
Q 17.53125 52.734375 16.796875 39.40625 
Q 19.671875 43.65625 24.015625 45.921875 
Q 28.375 48.1875 33.59375 48.1875 
Q 44.578125 48.1875 50.953125 41.515625 
Q 57.328125 34.859375 57.328125 23.390625 
Q 57.328125 12.15625 50.6875 5.359375 
Q 44.046875 -1.421875 33.015625 -1.421875 
Q 20.359375 -1.421875 13.671875 8.265625 
Q 6.984375 17.96875 6.984375 36.375 
Q 6.984375 53.65625 15.1875 63.9375 
Q 23.390625 74.21875 37.203125 74.21875 
Q 40.921875 74.21875 44.703125 73.484375 
Q 48.484375 72.75 52.59375 71.296875 
z
" id="DejaVuSans-36"/>
      </defs>
      <g transform="translate(245.492127 393.952038)scale(0.1 -0.1)">
       <use xlink:href="#DejaVuSans-36"/>
       <use x="63.623047" xlink:href="#DejaVuSans-30"/>
      </g>
     </g>
    </g>
    <g id="xtick_5">
     <g id="line2d_5">
      <g>
       <use style="stroke:#000000;stroke-width:0.8;" x="312.733442" xlink:href="#m39eff705dd" y="379.3536"/>
      </g>
     </g>
     <g id="text_5">
      <!-- 80 -->
      <defs>
       <path d="M 31.78125 34.625 
Q 24.75 34.625 20.71875 30.859375 
Q 16.703125 27.09375 16.703125 20.515625 
Q 16.703125 13.921875 20.71875 10.15625 
Q 24.75 6.390625 31.78125 6.390625 
Q 38.8125 6.390625 42.859375 10.171875 
Q 46.921875 13.96875 46.921875 20.515625 
Q 46.921875 27.09375 42.890625 30.859375 
Q 38.875 34.625 31.78125 34.625 
z
M 21.921875 38.8125 
Q 15.578125 40.375 12.03125 44.71875 
Q 8.5 49.078125 8.5 55.328125 
Q 8.5 64.0625 14.71875 69.140625 
Q 20.953125 74.21875 31.78125 74.21875 
Q 42.671875 74.21875 48.875 69.140625 
Q 55.078125 64.0625 55.078125 55.328125 
Q 55.078125 49.078125 51.53125 44.71875 
Q 48 40.375 41.703125 38.8125 
Q 48.828125 37.15625 52.796875 32.3125 
Q 56.78125 27.484375 56.78125 20.515625 
Q 56.78125 9.90625 50.3125 4.234375 
Q 43.84375 -1.421875 31.78125 -1.421875 
Q 19.734375 -1.421875 13.25 4.234375 
Q 6.78125 9.90625 6.78125 20.515625 
Q 6.78125 27.484375 10.78125 32.3125 
Q 14.796875 37.15625 21.921875 38.8125 
z
M 18.3125 54.390625 
Q 18.3125 48.734375 21.84375 45.5625 
Q 25.390625 42.390625 31.78125 42.390625 
Q 38.140625 42.390625 41.71875 45.5625 
Q 45.3125 48.734375 45.3125 54.390625 
Q 45.3125 60.0625 41.71875 63.234375 
Q 38.140625 66.40625 31.78125 66.40625 
Q 25.390625 66.40625 21.84375 63.234375 
Q 18.3125 60.0625 18.3125 54.390625 
z
" id="DejaVuSans-38"/>
      </defs>
      <g transform="translate(306.370942 393.952038)scale(0.1 -0.1)">
       <use xlink:href="#DejaVuSans-38"/>
       <use x="63.623047" xlink:href="#DejaVuSans-30"/>
      </g>
     </g>
    </g>
    <g id="xtick_6">
     <g id="line2d_6">
      <g>
       <use style="stroke:#000000;stroke-width:0.8;" x="373.612258" xlink:href="#m39eff705dd" y="379.3536"/>
      </g>
     </g>
     <g id="text_6">
      <!-- 100 -->
      <defs>
       <path d="M 12.40625 8.296875 
L 28.515625 8.296875 
L 28.515625 63.921875 
L 10.984375 60.40625 
L 10.984375 69.390625 
L 28.421875 72.90625 
L 38.28125 72.90625 
L 38.28125 8.296875 
L 54.390625 8.296875 
L 54.390625 0 
L 12.40625 0 
z
" id="DejaVuSans-31"/>
      </defs>
      <g transform="translate(364.068508 393.952038)scale(0.1 -0.1)">
       <use xlink:href="#DejaVuSans-31"/>
       <use x="63.623047" xlink:href="#DejaVuSans-30"/>
       <use x="127.246094" xlink:href="#DejaVuSans-30"/>
      </g>
     </g>
    </g>
   </g>
   <g id="matplotlib.axis_2">
    <g id="ytick_1">
     <g id="line2d_7">
      <defs>
       <path d="M 0 0 
L -3.5 0 
" id="m50cf43bc45" style="stroke:#000000;stroke-width:0.8;"/>
      </defs>
      <g>
       <use style="stroke:#000000;stroke-width:0.8;" x="54" xlink:href="#m50cf43bc45" y="357.297615"/>
      </g>
     </g>
     <g id="text_7">
      <!-- −0.75 -->
      <defs>
       <path d="M 10.59375 35.5 
L 73.1875 35.5 
L 73.1875 27.203125 
L 10.59375 27.203125 
z
" id="DejaVuSans-2212"/>
       <path d="M 10.6875 12.40625 
L 21 12.40625 
L 21 0 
L 10.6875 0 
z
" id="DejaVuSans-2e"/>
       <path d="M 8.203125 72.90625 
L 55.078125 72.90625 
L 55.078125 68.703125 
L 28.609375 0 
L 18.3125 0 
L 43.21875 64.59375 
L 8.203125 64.59375 
z
" id="DejaVuSans-37"/>
       <path d="M 10.796875 72.90625 
L 49.515625 72.90625 
L 49.515625 64.59375 
L 19.828125 64.59375 
L 19.828125 46.734375 
Q 21.96875 47.46875 24.109375 47.828125 
Q 26.265625 48.1875 28.421875 48.1875 
Q 40.625 48.1875 47.75 41.5 
Q 54.890625 34.8125 54.890625 23.390625 
Q 54.890625 11.625 47.5625 5.09375 
Q 40.234375 -1.421875 26.90625 -1.421875 
Q 22.3125 -1.421875 17.546875 -0.640625 
Q 12.796875 0.140625 7.71875 1.703125 
L 7.71875 11.625 
Q 12.109375 9.234375 16.796875 8.0625 
Q 21.484375 6.890625 26.703125 6.890625 
Q 35.15625 6.890625 40.078125 11.328125 
Q 45.015625 15.765625 45.015625 23.390625 
Q 45.015625 31 40.078125 35.4375 
Q 35.15625 39.890625 26.703125 39.890625 
Q 22.75 39.890625 18.8125 39.015625 
Q 14.890625 38.140625 10.796875 36.28125 
z
" id="DejaVuSans-35"/>
      </defs>
      <g transform="translate(16.354687 361.096833)scale(0.1 -0.1)">
       <use xlink:href="#DejaVuSans-2212"/>
       <use x="83.789062" xlink:href="#DejaVuSans-30"/>
       <use x="147.412109" xlink:href="#DejaVuSans-2e"/>
       <use x="179.199219" xlink:href="#DejaVuSans-37"/>
       <use x="242.822266" xlink:href="#DejaVuSans-35"/>
      </g>
     </g>
    </g>
    <g id="ytick_2">
     <g id="line2d_8">
      <g>
       <use style="stroke:#000000;stroke-width:0.8;" x="54" xlink:href="#m50cf43bc45" y="313.846491"/>
      </g>
     </g>
     <g id="text_8">
      <!-- −0.50 -->
      <g transform="translate(16.354687 317.64571)scale(0.1 -0.1)">
       <use xlink:href="#DejaVuSans-2212"/>
       <use x="83.789062" xlink:href="#DejaVuSans-30"/>
       <use x="147.412109" xlink:href="#DejaVuSans-2e"/>
       <use x="179.199219" xlink:href="#DejaVuSans-35"/>
       <use x="242.822266" xlink:href="#DejaVuSans-30"/>
      </g>
     </g>
    </g>
    <g id="ytick_3">
     <g id="line2d_9">
      <g>
       <use style="stroke:#000000;stroke-width:0.8;" x="54" xlink:href="#m50cf43bc45" y="270.395368"/>
      </g>
     </g>
     <g id="text_9">
      <!-- −0.25 -->
      <g transform="translate(16.354687 274.194587)scale(0.1 -0.1)">
       <use xlink:href="#DejaVuSans-2212"/>
       <use x="83.789062" xlink:href="#DejaVuSans-30"/>
       <use x="147.412109" xlink:href="#DejaVuSans-2e"/>
       <use x="179.199219" xlink:href="#DejaVuSans-32"/>
       <use x="242.822266" xlink:href="#DejaVuSans-35"/>
      </g>
     </g>
    </g>
    <g id="ytick_4">
     <g id="line2d_10">
      <g>
       <use style="stroke:#000000;stroke-width:0.8;" x="54" xlink:href="#m50cf43bc45" y="226.944245"/>
      </g>
     </g>
     <g id="text_10">
      <!-- 0.00 -->
      <g transform="translate(24.734375 230.743464)scale(0.1 -0.1)">
       <use xlink:href="#DejaVuSans-30"/>
       <use x="63.623047" xlink:href="#DejaVuSans-2e"/>
       <use x="95.410156" xlink:href="#DejaVuSans-30"/>
       <use x="159.033203" xlink:href="#DejaVuSans-30"/>
      </g>
     </g>
    </g>
    <g id="ytick_5">
     <g id="line2d_11">
      <g>
       <use style="stroke:#000000;stroke-width:0.8;" x="54" xlink:href="#m50cf43bc45" y="183.493122"/>
      </g>
     </g>
     <g id="text_11">
      <!-- 0.25 -->
      <g transform="translate(24.734375 187.29234)scale(0.1 -0.1)">
       <use xlink:href="#DejaVuSans-30"/>
       <use x="63.623047" xlink:href="#DejaVuSans-2e"/>
       <use x="95.410156" xlink:href="#DejaVuSans-32"/>
       <use x="159.033203" xlink:href="#DejaVuSans-35"/>
      </g>
     </g>
    </g>
    <g id="ytick_6">
     <g id="line2d_12">
      <g>
       <use style="stroke:#000000;stroke-width:0.8;" x="54" xlink:href="#m50cf43bc45" y="140.041998"/>
      </g>
     </g>
     <g id="text_12">
      <!-- 0.50 -->
      <g transform="translate(24.734375 143.841217)scale(0.1 -0.1)">
       <use xlink:href="#DejaVuSans-30"/>
       <use x="63.623047" xlink:href="#DejaVuSans-2e"/>
       <use x="95.410156" xlink:href="#DejaVuSans-35"/>
       <use x="159.033203" xlink:href="#DejaVuSans-30"/>
      </g>
     </g>
    </g>
    <g id="ytick_7">
     <g id="line2d_13">
      <g>
       <use style="stroke:#000000;stroke-width:0.8;" x="54" xlink:href="#m50cf43bc45" y="96.590875"/>
      </g>
     </g>
     <g id="text_13">
      <!-- 0.75 -->
      <g transform="translate(24.734375 100.390094)scale(0.1 -0.1)">
       <use xlink:href="#DejaVuSans-30"/>
       <use x="63.623047" xlink:href="#DejaVuSans-2e"/>
       <use x="95.410156" xlink:href="#DejaVuSans-37"/>
       <use x="159.033203" xlink:href="#DejaVuSans-35"/>
      </g>
     </g>
    </g>
    <g id="ytick_8">
     <g id="line2d_14">
      <g>
       <use style="stroke:#000000;stroke-width:0.8;" x="54" xlink:href="#m50cf43bc45" y="53.139752"/>
      </g>
     </g>
     <g id="text_14">
      <!-- 1.00 -->
      <g transform="translate(24.734375 56.93897)scale(0.1 -0.1)">
       <use xlink:href="#DejaVuSans-31"/>
       <use x="63.623047" xlink:href="#DejaVuSans-2e"/>
       <use x="95.410156" xlink:href="#DejaVuSans-30"/>
       <use x="159.033203" xlink:href="#DejaVuSans-30"/>
      </g>
     </g>
    </g>
   </g>
   <g id="line2d_15">
    <path clip-path="url(#pff3dcedcfc)" d="M 69.218182 226.944245 
L 70.801031 142.800666 
L 71.714213 104.972585 
L 72.444759 83.151529 
L 73.023108 71.99953 
L 73.449259 67.451635 
L 73.753654 66.143903 
L 73.875411 66.07391 
L 73.905851 66.096733 
L 74.058048 66.451833 
L 74.301563 67.849121 
L 74.636396 71.406806 
L 75.062548 78.578803 
L 75.610457 91.868857 
L 76.310564 114.733642 
L 77.254185 153.709189 
L 78.989232 237.062851 
L 80.450323 302.287673 
L 81.363505 333.75444 
L 82.063612 350.967271 
L 82.611521 359.675009 
L 83.037673 363.399656 
L 83.311628 364.363052 
L 83.463825 364.414346 
L 83.616022 364.121783 
L 83.829097 363.139329 
L 84.133492 360.594707 
L 84.559643 354.848019 
L 85.107553 343.941584 
L 85.807659 324.891629 
L 86.720841 293.2122 
L 88.273251 229.890706 
L 89.916979 165.818035 
L 90.860601 137.321947 
L 91.560707 122.088971 
L 92.139056 113.874556 
L 92.565207 110.500289 
L 92.869602 109.507429 
L 93.021799 109.454203 
L 93.173996 109.694906 
L 93.387071 110.521617 
L 93.691466 112.678259 
L 94.117617 117.565337 
L 94.665527 126.857685 
L 95.335194 142.309653 
L 96.217936 168.187231 
L 97.648588 217.718359 
L 99.444514 278.145514 
L 100.388135 302.760223 
L 101.118681 316.483772 
L 101.69703 323.533557 
L 102.123181 326.439744 
L 102.427575 327.304384 
L 102.610212 327.338402 
L 102.792848 327.011087 
L 103.036364 326.018548 
L 103.371197 323.636502 
L 103.827788 318.562626 
L 104.406137 309.328082 
L 105.136683 293.761623 
L 106.141183 266.998192 
L 109.702594 167.096057 
L 110.463579 153.456013 
L 111.072367 146.018576 
L 111.559398 142.473638 
L 111.894231 141.312912 
L 112.107307 141.118562 
L 112.259504 141.237883 
L 112.47258 141.763416 
L 112.776974 143.229052 
L 113.172686 146.355529 
L 113.690156 152.413355 
L 114.359823 163.234457 
L 115.212127 180.979029 
L 116.521021 213.584919 
L 118.590901 264.78879 
L 119.534523 282.655672 
L 120.265068 292.572837 
L 120.843417 297.629912 
L 121.269569 299.682521 
L 121.573963 300.263724 
L 121.756599 300.258502 
L 121.939236 299.989592 
L 122.21319 299.09763 
L 122.578463 297.016888 
L 123.065494 292.728135 
L 123.674282 285.132451 
L 124.465707 272.103038 
L 125.561525 249.887492 
L 128.483708 188.771995 
L 129.336012 176.211166 
L 130.005679 169.293857 
L 130.523149 165.930051 
L 130.918861 164.574187 
L 131.192816 164.260086 
L 131.375452 164.33387 
L 131.588528 164.703883 
L 131.892922 165.755007 
L 132.288634 168.014362 
L 132.806104 172.409573 
L 133.445332 179.874158 
L 134.297635 192.701609 
L 135.57609 215.842195 
L 137.737288 254.910984 
L 138.68091 267.878816 
L 139.381016 274.801764 
L 139.959365 278.526927 
L 140.385517 280.050088 
L 140.689911 280.491783 
L 140.902987 280.480534 
L 141.116063 280.207405 
L 141.420457 279.369477 
L 141.816169 277.514139 
L 142.333639 273.849796 
L 142.972866 267.56971 
L 143.79473 257.136836 
L 145.012307 238.487007 
L 147.356141 202.29919 
L 148.269323 191.70653 
L 148.96943 185.86898 
L 149.517339 182.879793 
L 149.943491 181.567823 
L 150.247885 181.182991 
L 150.460961 181.18749 
L 150.704476 181.466603 
L 151.00887 182.22018 
L 151.404582 183.852698 
L 151.922052 187.041428 
L 152.56128 192.470317 
L 153.413583 201.815749 
L 154.692038 218.700528 
L 156.853236 247.260414 
L 157.796858 256.760263 
L 158.527404 262.020593 
L 159.105752 264.692274 
L 159.531904 265.767395 
L 159.836298 266.063161 
L 160.079813 266.016757 
L 160.353768 265.666874 
L 160.688602 264.819454 
L 161.114753 263.096737 
L 161.662663 259.88976 
L 162.362769 254.356009 
L 163.306391 244.902268 
L 165.010997 224.996773 
L 166.472089 209.036922 
L 167.385271 201.276457 
L 168.085378 196.990789 
L 168.663726 194.697643 
L 169.089878 193.771334 
L 169.424712 193.505895 
L 169.668227 193.56805 
L 169.942181 193.892033 
L 170.307454 194.73367 
L 170.764045 196.418131 
L 171.342394 199.487399 
L 172.07294 204.665012 
L 173.07744 213.571931 
L 176.638851 246.850531 
L 177.430276 251.54948 
L 178.039064 253.978226 
L 178.526094 255.118496 
L 178.891367 255.492342 
L 179.165322 255.501085 
L 179.439277 255.279057 
L 179.77411 254.700077 
L 180.200262 253.49039 
L 180.748171 251.205352 
L 181.448278 247.225836 
L 182.36146 240.622022 
L 183.91387 227.449053 
L 185.557598 214.148992 
L 186.501219 208.247711 
L 187.231765 204.991395 
L 187.810114 203.347222 
L 188.236265 202.694001 
L 188.571099 202.518554 
L 188.875493 202.616264 
L 189.210326 203.002472 
L 189.636478 203.90381 
L 190.153948 205.581911 
L 190.823615 208.609852 
L 191.675919 213.609975 
L 192.954374 222.628231 
L 195.115572 237.850028 
L 196.059193 242.900994 
L 196.789739 245.69109 
L 197.368088 247.102404 
L 197.824679 247.689815 
L 198.159512 247.820331 
L 198.463906 247.719332 
L 198.829179 247.326555 
L 199.255331 246.505888 
L 199.80324 244.91138 
L 200.472907 242.225463 
L 201.35565 237.685996 
L 202.755863 229.116404 
L 204.643106 217.808119 
L 205.586728 213.444911 
L 206.317274 211.01619 
L 206.895622 209.771867 
L 207.352213 209.238751 
L 207.717486 209.102857 
L 208.05232 209.204439 
L 208.417593 209.557627 
L 208.874184 210.342341 
L 209.422093 211.755682 
L 210.122199 214.225585 
L 211.035382 218.334462 
L 212.587792 226.55027 
L 214.23152 234.866692 
L 215.175141 238.566889 
L 215.905687 240.615186 
L 216.484036 241.654986 
L 216.940627 242.091337 
L 217.336339 242.190431 
L 217.701612 242.053197 
L 218.127764 241.621957 
L 218.614794 240.787313 
L 219.223582 239.272033 
L 219.984568 236.744054 
L 221.049947 232.340912 
L 224.276524 218.443447 
L 225.098388 216.06372 
L 225.768055 214.743169 
L 226.315964 214.116524 
L 226.772555 213.917311 
L 227.168268 213.982693 
L 227.594419 214.295619 
L 228.08145 214.948861 
L 228.690238 216.176159 
L 229.451223 218.267083 
L 230.455724 221.738637 
L 234.047574 234.786503 
L 234.838998 236.59175 
L 235.478226 237.550879 
L 235.995696 237.974902 
L 236.452287 238.080586 
L 236.878439 237.953176 
L 237.33503 237.580879 
L 237.882939 236.829104 
L 238.552606 235.501321 
L 239.40491 233.273157 
L 240.652925 229.302014 
L 242.99676 221.787102 
L 243.940381 219.532073 
L 244.670927 218.305184 
L 245.279715 217.678152 
L 245.797185 217.442952 
L 246.253776 217.464956 
L 246.740807 217.721363 
L 247.288716 218.284292 
L 247.927944 219.27763 
L 248.749808 221.006863 
L 249.876066 223.960987 
L 252.828688 231.959531 
L 253.711431 233.620625 
L 254.411538 234.516845 
L 255.020326 234.959097 
L 255.537796 235.078849 
L 256.055266 234.96346 
L 256.603175 234.593174 
L 257.242402 233.860739 
L 258.003388 232.619551 
L 259.007888 230.509779 
L 262.934572 221.728946 
L 263.725996 220.704777 
L 264.395663 220.181409 
L 264.974012 219.998474 
L 265.521921 220.057413 
L 266.10027 220.358115 
L 266.739498 220.956865 
L 267.500483 221.990385 
L 268.504983 223.768488 
L 270.422666 227.749317 
L 271.822879 230.394429 
L 272.7665 231.738804 
L 273.527485 232.468254 
L 274.197152 232.81467 
L 274.805941 232.879572 
L 275.414729 232.708332 
L 276.053956 232.287035 
L 276.814941 231.495836 
L 277.758563 230.160422 
L 279.189215 227.687805 
L 281.228656 224.221311 
L 282.233156 222.945816 
L 283.05502 222.245541 
L 283.755126 221.92843 
L 284.394354 221.873831 
L 285.033582 222.041378 
L 285.733688 222.465402 
L 286.555552 223.246433 
L 287.590492 224.567772 
L 289.538614 227.517639 
L 290.999705 229.525498 
L 291.973766 230.515192 
L 292.79563 231.050236 
L 293.526176 231.267281 
L 294.226283 231.240055 
L 294.926389 230.989224 
L 295.717814 230.459694 
L 296.661435 229.544936 
L 298.000769 227.901112 
L 300.496801 224.805539 
L 301.53174 223.895822 
L 302.384044 223.425025 
L 303.145029 223.24425 
L 303.906014 223.2957 
L 304.697439 223.585834 
L 305.580182 224.162552 
L 306.676 225.167157 
L 308.776319 227.486085 
L 310.26785 228.950869 
L 311.30279 229.669211 
L 312.185533 230.021676 
L 313.007397 230.112619 
L 313.829261 229.974074 
L 314.712004 229.588283 
L 315.746944 228.875989 
L 317.208035 227.564894 
L 319.673627 225.343761 
L 320.799885 224.646442 
L 321.743507 224.315209 
L 322.62625 224.238361 
L 323.508993 224.386992 
L 324.483054 224.789681 
L 325.639751 225.526509 
L 327.618313 227.111137 
L 329.353359 228.385301 
L 330.510056 228.966148 
L 331.514557 229.224247 
L 332.458179 229.238048 
L 333.43224 229.025679 
L 334.528058 228.547746 
L 335.95871 227.658058 
L 339.154848 225.591386 
L 340.341985 225.13667 
L 341.376925 224.971257 
L 342.411865 225.034015 
L 343.507683 225.332417 
L 344.816578 225.936123 
L 349.656444 228.426732 
L 350.813141 228.623624 
L 351.90896 228.58587 
L 353.096097 228.313648 
L 354.49631 227.751586 
L 359.1231 225.700298 
L 360.371115 225.50926 
L 361.558252 225.551587 
L 362.836707 225.82423 
L 364.449996 226.414922 
L 368.285361 227.913421 
L 369.655135 228.151921 
L 370.93359 228.152411 
L 372.303363 227.925099 
L 373.581818 227.547613 
L 373.581818 227.547613 
" style="fill:none;stroke:#1f77b4;stroke-linecap:square;stroke-width:1.5;"/>
   </g>
   <g id="patch_3">
    <path d="M 54 379.3536 
L 54 51.1488 
" style="fill:none;stroke:#000000;stroke-linecap:square;stroke-linejoin:miter;stroke-width:0.8;"/>
   </g>
   <g id="patch_4">
    <path d="M 388.8 379.3536 
L 388.8 51.1488 
" style="fill:none;stroke:#000000;stroke-linecap:square;stroke-linejoin:miter;stroke-width:0.8;"/>
   </g>
   <g id="patch_5">
    <path d="M 54 379.3536 
L 388.8 379.3536 
" style="fill:none;stroke:#000000;stroke-linecap:square;stroke-linejoin:miter;stroke-width:0.8;"/>
   </g>
   <g id="patch_6">
    <path d="M 54 51.1488 
L 388.8 51.1488 
" style="fill:none;stroke:#000000;stroke-linecap:square;stroke-linejoin:miter;stroke-width:0.8;"/>
   </g>
  </g>
 </g>
 <defs>
  <clipPath id="pff3dcedcfc">
   <rect height="328.2048" width="334.8" x="54" y="51.1488"/>
  </clipPath>
 </defs>
</svg>
